<svg width="120" height="120" viewBox="0 0 120 120" fill="none" xmlns="http://www.w3.org/2000/svg" role="img" aria-label="BizMatch">
  <defs>
    <linearGradient id="bmGrad" x1="30" y1="14" x2="92" y2="110" gradientUnits="userSpaceOnUse">
      <stop offset="0" stop-color="#3ec9f5"/>
      <stop offset="1" stop-color="#2f6bff"/>
    </linearGradient>
  </defs>
  <!-- Bold rounded B letterform -->
  <path fill="url(#bmGrad)" d="
    M30 14
    h34
    a26 26 0 0 1 26 26
    a24 24 0 0 1 -9.5 19
    a25 25 0 0 1 12.5 22
    a25 25 0 0 1 -25 25
    H30
    a10 10 0 0 1 -10 -10
    V24
    a10 10 0 0 1 10 -10
    Z
    M40 32
    v20
    h22
    a10 10 0 0 0 0 -20
    Z
    M40 66
    v22
    h24
    a11 11 0 0 0 0 -22
    Z" />
  <!-- Network / message motif: two nodes linked across the waist -->
  <g>
    <path d="M44 60 L60 54 L76 60" stroke="#0a0e1a" stroke-width="5" stroke-linecap="round" stroke-linejoin="round" fill="none"/>
    <circle cx="44" cy="60" r="8" fill="#0a0e1a"/>
    <circle cx="76" cy="60" r="8" fill="#0a0e1a"/>
    <circle cx="44" cy="60" r="5" fill="url(#bmGrad)"/>
    <circle cx="76" cy="60" r="5" fill="url(#bmGrad)"/>
  </g>
</svg>
